# xmcd
#
# Track frame offsets: 
#        150
#        17941
#        31423
#        44078
#        56561
#        67967
#        80509
#        89414
#        101162
#        113638
#        127199
#        140625
#        153294
#        165712
#        176763
#        188546
#        202158
#        217926
#        230172
#        241611
#        257185
#        271179
#        281236
#        292819
#
# Disc length: 4095 seconds
#
# Revision: 0
# Processed by: cddbd v1.5.2PL0 Copyright (c) Steve Scherf et al.
# Submitted via: ExactAudioCopy v0.99pb4
#
DISCID=670ffd18
DTITLE=Jamie Jamerson - Standing in the Shadows of Motown 1
DYEAR=1900
DGENRE=
TTITLE0=Neuer Künstler (32) - What's going on-Marvin Gaye
TTITLE1=Neuer Künstler (32) - Ain't that peculiar-Marvin Gaye
TTITLE2=Neuer Künstler (32) - My guy-Mary Wells
TTITLE3=Neuer Künstler (32) - I Heard it through the grapevine-Gladys 
TTITLE3=Knight and The Pips
TTITLE4=Neuer Künstler (32) - Ain't too proud to beg-The Temptations
TTITLE5=Neuer Künstler (32) - Going to a Go-go-Smokey Robinson and The M
TTITLE5=iracles
TTITLE6=Neuer Künstler (32) - Contract on love-Stevie Wonder
TTITLE7=Neuer Künstler (32) - Darling dear -Jackson 5
TTITLE8=Neuer Künstler (32) - You can't hurry love-Diana Ross and The Su
TTITLE8=premes
TTITLE9=Neuer Künstler (32) - Shotgun-Junior Walker And The All Stars
TTITLE10=Neuer Künstler (32) - Reach out I'll be there-Four Tops
TTITLE11=Neuer Künstler (32) - For once in my life-Stevie Wonder
TTITLE12=Neuer Künstler (32) - I second that emotion-Smokey Robinson &
TTITLE12=The Miracles
TTITLE13=Neuer Künstler (32) - (I know) I'm losing you-The Temptations
TTITLE14=Neuer Künstler (32) - Get Ready-The Temptations
TTITLE15=Neuer Künstler (32) - Bernadette-Four Tops
TTITLE16=Neuer Künstler (32) - Cloud nine-The Temptations
TTITLE17=Neuer Künstler (32) - You keep me hangin' on-Diana Ross and The
TTITLE17=Supremes
TTITLE18=Neuer Künstler (32) - Ain't no mountain high enough-Marvin Ga
TTITLE18=ye and Tammi Terrell
TTITLE19=Neuer Künstler (32) - Ain't no mountain high enough-Diana Ros
TTITLE19=s
TTITLE20=Neuer Künstler (32) - I'm gonna make you love me-Diana Ross &
TTITLE20=The Supremes and The Temptations
TTITLE21=Neuer Künstler (32) - Girl (why you wanna make me blue)-Tempt
TTITLE21=ations
TTITLE22=Neuer Künstler (32) - Baby love-Diana Ross and The Supremes
TTITLE23=Neuer Künstler (32) - It's a Shame-Spinners
EXTD=
EXTT0=
EXTT1=
EXTT2=
EXTT3=
EXTT4=
EXTT5=
EXTT6=
EXTT7=
EXTT8=
EXTT9=
EXTT10=
EXTT11=
EXTT12=
EXTT13=
EXTT14=
EXTT15=
EXTT16=
EXTT17=
EXTT18=
EXTT19=
EXTT20=
EXTT21=
EXTT22=
EXTT23=
PLAYORDER=
